# xmcd
#
# Track frame offsets: 
#        150
#        15272
#        32335
#        51273
#        73451
#        92171
#        109568
#        127320
#        149467
#        170041
#        193186
#        214001
#
# Disc length: 3063 seconds
#
# Revision: 0
# Processed by: cddbd v1.5.2PL0 Copyright (c) Steve Scherf et al.
# Submitted via: ExactAudioCopyFreeDBPlugin 1.0
#
DISCID=b30bf50c
DTITLE=Cécile Doo-Kingeé - Freedom Calling
DYEAR=2010
DGENRE=Blues;Hillside
TTITLE0=not around
TTITLE1=come undone
TTITLE2=freedom calling
TTITLE3=rise
TTITLE4=lettre à personne
TTITLE5=ma's kitchen
TTITLE6=mama
TTITLE7=walk away
TTITLE8=what i need (red dress)
TTITLE9=beneath the lies
TTITLE10=endgame
TTITLE11=dachshund blues (for miles)
EXTD=
EXTT0=
EXTT1=
EXTT2=
EXTT3=
EXTT4=
EXTT5=
EXTT6=
EXTT7=
EXTT8=
EXTT9=
EXTT10=
EXTT11=
PLAYORDER=
